<?xml version="1.0" standalone="no"?>
<!DOCTYPE svg PUBLIC "-//W3C//DTD SVG 20010904//EN"
 "http://www.w3.org/TR/2001/REC-SVG-20010904/DTD/svg10.dtd">
<svg version="1.0" xmlns="http://www.w3.org/2000/svg"
 width="2500.000000pt" height="2500.000000pt" viewBox="0 0 2500.000000 2500.000000"
 preserveAspectRatio="xMidYMid meet">

<g transform="translate(0.000000,2500.000000) scale(0.100000,-0.100000)"
fill="#000000" stroke="none">
<path d="M12405 22431 c-22 -10 -74 -45 -115 -78 -78 -63 -380 -363 -380 -378
0 -4 8 -1 18 8 57 52 223 96 436 117 123 12 186 9 361 -16 146 -21 242 -50
305 -91 l55 -36 -42 49 c-64 76 -332 335 -389 377 -93 67 -174 83 -249 48z
m50 -282 c-22 -4 -58 -8 -79 -8 -54 -1 -229 -36 -336 -66 -18 -6 -22 -5 -14 4
27 29 272 79 389 79 68 0 74 -2 40 -9z"/>
<path d="M12232 21600 c-73 -4 -136 -11 -140 -15 -4 -4 13 -5 38 -3 25 2 61
-2 80 -9 l35 -14 -32 4 c-37 4 -43 -5 -43 -64 l0 -39 193 0 c107 0 255 -3 330
-7 l136 -6 -9 34 c-13 43 -13 99 -1 99 5 0 74 -11 153 -24 165 -29 296 -65
386 -106 34 -16 62 -27 62 -25 0 10 -101 54 -190 84 -258 84 -574 113 -998 91z"/>
<path d="M13435 21414 c6 -5 23 -20 40 -34 29 -24 29 -24 10 -2 -11 13 -29 28
-40 34 -11 6 -15 6 -10 2z"/>
<path d="M12984 21356 c4 -22 15 -49 23 -60 15 -20 15 -20 8 -1 -4 11 -11 35
-15 53 -12 48 -24 54 -16 8z"/>
<path d="M12440 21335 c0 -25 5 -45 10 -45 6 0 10 20 10 45 0 25 -4 45 -10 45
-5 0 -10 -20 -10 -45z"/>
<path d="M12143 20103 c15 -2 37 -2 50 0 12 2 0 4 -28 4 -27 0 -38 -2 -22 -4z"/>
<path d="M12355 20040 c-134 -35 -224 -77 -217 -101 4 -15 -26 -10 -32 6 -3 8
-12 12 -20 9 -21 -8 -30 -42 -16 -59 10 -12 7 -22 -16 -50 -16 -20 -43 -53
-60 -74 -50 -62 -89 -232 -89 -391 0 -103 3 -131 18 -153 9 -14 17 -32 17 -39
0 -17 -63 -101 -142 -191 -59 -66 -67 -94 -22 -77 12 5 44 39 72 75 28 37 86
104 129 149 43 44 99 106 125 136 108 129 303 300 342 300 3 0 6 -8 6 -19 0
-10 7 -24 15 -31 13 -11 15 -7 15 22 0 24 8 42 25 58 l24 23 46 -41 c24 -23
49 -42 55 -42 19 0 154 -137 246 -250 52 -63 115 -140 141 -171 27 -31 64 -78
83 -104 59 -79 102 -125 116 -125 24 0 15 23 -31 80 -107 131 -151 209 -126
224 7 5 11 57 11 145 0 136 0 138 -31 185 -35 57 -45 56 -25 -2 19 -52 30
-215 19 -265 l-8 -38 -85 99 c-47 54 -116 137 -155 183 -38 46 -96 111 -128
145 -57 61 -61 80 -15 69 13 -3 35 -1 48 4 21 9 20 10 -13 5 -31 -5 -36 -4
-31 10 3 9 9 16 13 16 4 0 38 22 76 50 62 45 70 48 79 32 5 -9 25 -36 45 -58
20 -23 58 -75 85 -115 40 -62 53 -74 77 -76 24 -2 29 2 29 20 -1 38 -44 129
-103 214 -31 45 -57 85 -57 87 0 3 7 3 15 0 12 -5 15 2 15 32 0 53 -12 68 -44
60 -14 -3 -26 -11 -26 -16 0 -14 17 -12 23 3 3 8 7 5 12 -7 9 -21 -20 -50 -41
-42 -6 2 -24 -6 -40 -20 -16 -13 -34 -23 -40 -24 -7 0 -62 -34 -123 -75 -111
-75 -134 -88 -111 -60 10 11 9 18 -4 30 -16 17 -20 29 -17 53 1 8 -5 22 -14
32 -9 10 -15 26 -13 36 6 34 23 23 38 -24 12 -35 21 -48 38 -50 29 -4 27 5 -9
53 l-30 40 32 3 c18 2 65 -4 104 -13 66 -16 74 -16 103 -1 17 9 38 16 47 16
41 0 -8 38 -87 66 -24 9 -83 28 -133 43 l-90 27 -140 -36z m-10 -35 c-16 -8
-36 -14 -42 -15 -7 0 -13 -6 -13 -13 0 -16 -43 -34 -100 -43 -41 -7 -44 -6
-31 9 7 10 23 17 35 17 12 0 27 5 32 10 13 13 114 49 134 49 8 0 2 -7 -15 -14z
m-18 -41 c-3 -3 -12 -4 -19 -1 -8 3 -5 6 6 6 11 1 17 -2 13 -5z m136 -21 c-17
-6 -16 -29 2 -57 9 -13 15 -28 13 -32 -1 -5 6 -23 15 -41 20 -38 22 -83 4 -83
-16 0 -257 158 -257 169 0 4 37 13 83 21 45 7 91 16 102 21 11 4 27 8 35 8 10
-1 11 -2 3 -6z m-208 -101 c108 -72 194 -136 194 -144 1 -5 -7 -8 -17 -8 -35
0 -213 -165 -319 -295 -78 -96 -151 -175 -161 -175 -4 0 -9 8 -10 18 -17 144
-18 186 -8 269 9 67 17 98 32 115 11 13 29 36 39 53 44 70 157 215 168 215 7
0 44 -21 82 -48z m705 -83 c0 -6 -4 -7 -10 -4 -5 3 -10 11 -10 16 0 6 5 7 10
4 6 -3 10 -11 10 -16z m-389 -99 c13 0 98 -79 111 -103 5 -11 -27 9 -71 43
-81 63 -95 78 -65 66 9 -3 20 -6 25 -6z m-160 -44 c0 -4 -29 -29 -63 -57 -35
-27 -100 -86 -145 -131 -46 -45 -83 -76 -83 -69 0 7 50 62 110 122 122 121
184 167 181 135z m-306 -296 c-10 -11 -20 -18 -23 -15 -7 6 18 35 31 35 5 0 2
-9 -8 -20z m-25 -33 c0 -1 -25 -27 -57 -57 -36 -35 -49 -44 -36 -25 35 51 93
102 93 82z"/>
<path d="M12423 19907 c4 -10 7 -27 7 -38 0 -11 7 -19 16 -19 19 0 10 35 -14
60 -14 14 -15 13 -9 -3z"/>
<path d="M12346 19893 c-4 -9 -3 -20 2 -25 6 -6 10 1 10 16 0 30 -3 32 -12 9z"/>
<path d="M12370 19856 c0 -2 8 -10 18 -17 15 -13 16 -12 3 4 -13 16 -21 21
-21 13z"/>
<path d="M12416 19831 c-5 -7 -3 -18 3 -24 14 -14 20 -6 11 17 -5 15 -9 16
-14 7z"/>
<path d="M12170 19832 c0 -24 29 -67 89 -126 51 -52 62 -58 75 -47 23 19 20
28 -11 34 -37 7 -109 70 -133 116 -10 20 -19 30 -20 23z"/>
<path d="M12230 19800 c8 -5 20 -10 25 -10 6 0 3 5 -5 10 -8 5 -19 10 -25 10
-5 0 -3 -5 5 -10z"/>
<path d="M12290 19776 c0 -2 7 -6 15 -10 8 -3 15 -1 15 4 0 6 -7 10 -15 10 -8
0 -15 -2 -15 -4z"/>
<path d="M12193 19638 c1 -64 5 -114 10 -111 10 6 8 138 -3 188 -6 30 -8 10
-7 -77z"/>
<path d="M12597 19901 c7 -26 39 -55 52 -46 16 9 13 23 -9 45 -26 26 -50 26
-43 1z"/>
<path d="M12560 19819 c0 -5 5 -7 10 -4 6 3 10 8 10 11 0 2 -4 4 -10 4 -5 0
-10 -5 -10 -11z"/>
<path d="M12550 19562 c0 -25 25 -57 38 -49 15 10 4 41 -19 55 -16 10 -19 9
-19 -6z"/>
<path d="M13137 19452 c-15 -6 -13 -9 13 -19 33 -12 33 -12 24 11 -7 17 -10
18 -37 8z"/>
<path d="M12360 19381 c0 -22 4 -42 8 -45 4 -2 70 -8 145 -12 l137 -7 0 31 c0
17 -6 32 -12 35 -21 7 -202 -5 -215 -15 -7 -6 -14 -5 -18 2 -4 7 2 14 14 17
21 5 21 6 -5 19 -44 23 -54 18 -54 -25z"/>
<path d="M12108 19013 c-37 -4 -46 -16 -30 -41 7 -9 16 -10 41 -1 33 12 559 6
704 -7 69 -7 77 -2 54 31 -13 17 -38 18 -373 20 -197 2 -376 1 -396 -2z"/>
<path d="M11908 18773 c7 -3 16 -2 19 1 4 3 -2 6 -13 5 -11 0 -14 -3 -6 -6z"/>
<path d="M12432 18771 c-8 -4 -12 -19 -10 -32 3 -21 9 -24 51 -27 43 -3 48 -1
57 23 6 15 8 30 5 34 -6 11 -87 12 -103 2z"/>
<path d="M13083 18773 c9 -2 23 -2 30 0 6 3 -1 5 -18 5 -16 0 -22 -2 -12 -5z"/>
<path d="M11942 18730 c0 -14 2 -19 5 -12 2 6 2 18 0 25 -3 6 -5 1 -5 -13z"/>
<path d="M11596 18611 c-4 -7 -5 -15 -2 -18 9 -9 19 4 14 18 -4 11 -6 11 -12
0z"/>
<path d="M13355 18610 c3 -5 8 -10 11 -10 2 0 4 5 4 10 0 6 -5 10 -11 10 -5 0
-7 -4 -4 -10z"/>
<path d="M13315 18590 c-3 -5 1 -13 10 -16 22 -9 29 1 11 15 -10 8 -16 9 -21
1z"/>
<path d="M12407 18333 c-10 -9 -9 -201 1 -206 4 -2 33 -1 65 1 l57 4 0 92 c0
58 -4 96 -12 104 -13 13 -100 17 -111 5z"/>
<path d="M13561 18191 c2 -114 4 -124 29 -134 10 -4 8 -6 -7 -6 -28 -1 -30
-17 -3 -26 11 -3 20 -11 20 -16 0 -5 -9 -9 -20 -9 -29 0 -24 -26 8 -38 39 -14
172 -33 183 -26 14 8 9 300 -5 318 -8 10 -163 46 -200 46 -4 0 -6 -49 -5 -109z
m59 -35 c-7 -7 -10 14 -9 60 l1 69 9 -60 c6 -38 5 -63 -1 -69z m47 -33 c-2
-27 -3 -5 -3 47 0 52 1 74 3 48 2 -27 2 -69 0 -95z m63 117 c0 -5 -7 -10 -15
-10 -8 0 -15 5 -15 10 0 6 7 10 15 10 8 0 15 -4 15 -10z m20 -70 c12 -8 9 -10
-12 -10 -15 0 -30 5 -33 10 -8 13 25 13 45 0z m-133 -77 c-3 -10 -5 -2 -5 17
0 19 2 27 5 18 2 -10 2 -26 0 -35z m115 25 c-11 -11 -32 -3 -32 12 0 4 9 6 21
3 13 -4 17 -9 11 -15z m27 -44 c10 -9 -6 -11 -36 -7 -18 3 -30 9 -27 14 5 8
52 2 63 -7z m-108 -24 c5 0 9 -4 9 -9 0 -4 -11 -6 -25 -3 -14 2 -25 9 -25 14
0 6 7 7 16 4 9 -3 20 -6 25 -6z m104 -21 c7 -7 0 -9 -20 -5 -16 2 -33 5 -37 5
-5 1 -8 6 -8 12 0 13 49 3 65 -12z m-87 -37 c2 -7 -3 -12 -12 -12 -9 0 -16 7
-16 16 0 17 22 14 28 -4z m-38 -2 c0 -5 -2 -10 -4 -10 -3 0 -8 5 -11 10 -3 6
-1 10 4 10 6 0 11 -4 11 -10z m115 0 c-3 -5 -17 -10 -30 -10 -13 0 -27 5 -30
10 -4 6 8 10 30 10 22 0 34 -4 30 -10z m-5 -24 c0 -11 -19 -15 -25 -6 -3 5 1
10 9 10 9 0 16 -2 16 -4z"/>
<path d="M11316 18283 l-28 -5 6 -149 c4 -84 3 -149 -2 -149 -10 0 -26 275
-17 290 8 13 -14 13 -54 -1 -29 -10 -31 -13 -31 -64 0 -47 2 -53 19 -48 33 9
32 -15 -2 -28 l-32 -13 28 -3 c31 -5 37 -23 7 -23 -11 0 -20 -4 -20 -10 0 -5
14 -10 30 -10 24 0 30 -4 30 -22 0 -13 3 -33 6 -45 6 -21 3 -23 -30 -23 -29 0
-36 -4 -36 -20 0 -19 4 -20 58 -14 31 4 75 10 97 13 l40 7 -1 92 c0 50 -1 124
-2 162 -2 76 1 73 -66 63z m22 -58 c-1 -55 -18 -61 -18 -7 0 34 6 52 16 52 2
0 3 -20 2 -45z m-102 13 c-3 -13 -6 -34 -6 -47 0 -19 -3 -22 -11 -14 -14 14
-3 83 13 83 6 0 8 -9 4 -22z m112 -89 c-2 -6 -8 -10 -13 -10 -5 0 -11 4 -13
10 -2 6 4 11 13 11 9 0 15 -5 13 -11z m17 -89 c3 -5 2 -10 -4 -10 -5 0 -16 -3
-25 -6 -11 -4 -16 -1 -16 10 0 18 35 22 45 6z m-7 -57 c-2 -9 -11 -17 -20 -19
-20 -3 -20 -2 -12 20 8 21 36 21 32 -1z"/>
<path d="M12910 18179 c0 -5 5 -7 10 -4 6 3 10 8 10 11 0 2 -4 4 -10 4 -5 0
-10 -5 -10 -11z"/>
<path d="M11202 18028 c5 -34 38 -37 38 -4 0 20 -5 26 -21 26 -15 0 -20 -5
-17 -22z"/>
<path d="M12415 17862 c-3 -3 -5 -56 -5 -117 l0 -112 53 5 c28 2 53 5 54 6 1
1 5 45 9 98 5 75 4 97 -7 103 -17 11 -97 24 -104 17z"/>
<path d="M13154 17618 c-8 -12 -10 -135 -3 -142 2 -2 108 -16 234 -30 127 -15
289 -35 360 -46 72 -11 149 -23 173 -26 l43 -7 -3 74 -3 74 -80 17 c-156 34
-610 98 -690 98 -13 0 -27 -5 -31 -12z"/>
<path d="M11445 17594 c-194 -26 -318 -48 -423 -71 l-73 -17 3 -70 c3 -64 5
-71 23 -68 11 1 90 13 175 27 117 19 569 75 605 75 7 0 6 115 -1 134 -9 22
-99 20 -309 -10z"/>
<path d="M14355 17368 c3 -18 9 -41 11 -50 3 -9 -3 -21 -12 -26 -15 -8 -16
-14 -5 -39 8 -21 33 -42 82 -69 38 -21 69 -41 69 -44 0 -3 10 -16 21 -30 l20
-25 -6 75 c-9 110 -18 129 -83 176 -31 23 -68 47 -80 54 -23 11 -24 11 -17
-22z m143 -139 c-3 -8 -7 -3 -11 10 -4 17 -3 21 5 13 5 -5 8 -16 6 -23z"/>
<path d="M10546 17365 c-3 -8 -1 -15 4 -15 6 0 10 7 10 15 0 8 -2 15 -4 15 -2
0 -6 -7 -10 -15z"/>
<path d="M12400 17260 l0 -110 64 0 65 0 6 43 c3 23 5 71 3 107 l-3 65 -67 3
-68 3 0 -111z"/>
<path d="M9563 17198 c1 -7 -4 -31 -10 -53 -39 -131 -97 -423 -158 -780 -25
-148 -59 -344 -76 -435 -47 -254 -67 -379 -74 -455 -4 -38 -12 -83 -19 -100
-12 -28 -17 -30 -102 -42 -134 -18 -233 -38 -243 -49 -20 -20 -55 -329 -67
-593 l-7 -144 59 7 c69 8 341 25 399 25 30 0 36 -2 24 -9 -9 -5 -117 -17 -240
-25 -123 -9 -228 -21 -234 -26 -5 -6 -5 -9 1 -9 5 0 10 -33 12 -73 3 -97 8
-131 21 -155 17 -32 13 -51 -13 -58 -19 -4 -26 -15 -31 -46 -4 -21 -5 -41 -3
-43 2 -2 60 1 128 6 264 22 992 9 1215 -21 118 -16 128 -21 130 -60 5 -71 18
-145 29 -159 9 -12 3 -13 -38 -8 -27 4 -55 7 -62 7 -8 0 -14 8 -14 19 0 23
-25 46 -34 32 -4 -6 -12 -9 -19 -7 -7 1 -9 1 -4 -1 4 -3 7 -12 7 -20 0 -12 -6
-13 -27 -8 -49 13 -243 32 -243 23 0 -4 -7 -8 -15 -8 -16 0 -19 10 -33 110
l-9 65 -2 -72 c-1 -57 -4 -73 -16 -74 -102 -5 -149 -1 -161 15 -12 17 -13 17
-31 -1 -17 -17 -35 -19 -163 -18 l-145 0 -5 33 c-7 45 -24 41 -28 -6 l-3 -39
-72 -7 c-40 -4 -105 -10 -144 -13 l-73 -5 0 27 c0 15 -4 24 -10 20 -6 -4 -8
-15 -5 -25 6 -19 -1 -20 -130 -33 -14 -1 -21 -11 -23 -30 -3 -27 -2 -28 30
-23 179 28 898 32 1158 6 145 -14 241 -32 245 -44 12 -38 21 -483 11 -493 -2
-3 -76 4 -163 14 -271 31 -1117 22 -1260 -14 -13 -3 -23 -12 -23 -20 0 -13 9
-14 48 -9 110 14 561 27 732 21 315 -10 585 -29 635 -43 l30 -8 1 -402 c2
-379 1 -403 -16 -412 -12 -7 -68 -4 -167 7 -256 30 -1170 21 -1257 -13 -19 -7
-21 -20 -3 -27 6 -2 138 0 292 5 395 13 992 -7 1140 -37 20 -4 21 -9 17 -407
-3 -378 -2 -403 15 -416 15 -12 3 -13 -92 -7 -235 16 -585 20 -915 13 -382 -9
-455 -15 -455 -37 0 -13 92 -15 640 -17 703 -2 845 -10 845 -50 0 -10 -6 -13
-17 -10 -15 5 -18 0 -18 -24 0 -17 5 -30 13 -30 7 0 12 -14 12 -35 0 -27 -3
-33 -15 -28 -14 5 -15 -7 -13 -88 2 -69 6 -93 16 -92 17 4 16 -54 -2 -64 -11
-6 -15 -61 -19 -273 -5 -203 -11 -290 -26 -370 -24 -128 -40 -200 -47 -220 -4
-8 -8 -28 -9 -44 -2 -15 -7 -38 -13 -50 -5 -11 -22 -53 -36 -93 -15 -39 -34
-77 -42 -83 -8 -7 -14 -18 -14 -25 0 -7 -9 -24 -21 -39 -12 -15 -29 -54 -39
-87 -10 -33 -23 -66 -29 -72 -5 -7 -17 -34 -26 -61 -9 -26 -34 -77 -56 -112
-21 -35 -39 -73 -39 -84 0 -19 -7 -20 -147 -20 -227 0 -971 -19 -1035 -26 -39
-4 -58 -10 -58 -19 0 -11 92 -13 513 -12 404 2 520 -1 550 -11 20 -8 35 -17
32 -22 -3 -5 0 -12 5 -15 6 -4 9 -19 5 -34 -4 -19 -1 -32 10 -41 9 -7 25 -27
37 -44 l21 -31 -31 29 c-18 16 -34 27 -38 24 -10 -10 -33 -110 -38 -168 -3
-30 -24 -109 -46 -174 -30 -91 -37 -122 -27 -128 9 -6 8 -8 -4 -8 -11 0 -23
-21 -38 -65 -11 -36 -21 -71 -21 -79 0 -21 -56 -26 -285 -26 -366 0 -645 -11
-645 -26 0 -7 4 -15 9 -18 5 -3 200 -6 435 -6 460 -1 447 1 427 -53 -14 -37
-5 -34 15 6 9 17 20 34 23 37 8 6 111 180 111 187 0 3 49 96 109 206 59 111
134 252 165 312 31 61 79 142 107 180 27 39 59 88 71 110 11 22 24 42 28 45
13 9 40 68 40 88 0 10 32 74 72 143 39 68 91 166 116 216 l45 93 4 747 c2 412
4 1111 4 1556 -1 475 3 807 8 807 43 0 42 11 42 -449 0 -240 2 -488 4 -551 3
-63 5 -205 5 -314 0 -110 2 -197 5 -194 5 5 6 1197 2 1681 l-2 189 30 24 30
24 -38 -12 -37 -11 0 -179 c0 -152 -2 -180 -15 -185 -9 -3 -19 -2 -23 2 -4 4
-5 190 -3 413 2 332 6 410 17 422 12 12 14 -8 15 -140 1 -85 5 -186 9 -225 4
-38 7 277 6 701 0 425 -4 767 -8 760 -4 -6 -8 -81 -9 -166 -1 -143 -2 -153
-15 -122 -8 18 -23 99 -34 180 -24 186 -66 340 -179 667 -120 349 -206 575
-366 965 -78 191 -177 397 -214 448 -30 40 -60 56 -58 30z m146 -265 c1 -7 5
-13 10 -13 5 0 14 -13 20 -30 10 -29 9 -30 -18 -30 -32 0 -47 30 -29 59 8 13
6 25 -6 49 -9 17 -16 37 -15 44 1 15 37 -61 38 -79z m101 -258 c0 -8 5 -15 10
-15 17 0 11 -18 -15 -47 -24 -27 -25 -28 -40 -9 -19 25 -19 28 6 60 23 29 39
34 39 11z m-43 -147 c-3 -7 -5 -2 -5 12 0 14 2 19 5 13 2 -7 2 -19 0 -25z
m398 -1279 c44 -7 94 -18 110 -25 l30 -13 -32 -1 c-32 0 -88 7 -293 35 -162
23 -164 24 -25 20 72 -2 166 -10 210 -16z m-1244 -5 c-35 -15 -48 -13 -36 5 3
6 21 11 38 11 l32 -1 -34 -15z m1248 -714 c35 -5 64 -10 66 -12 2 -2 5 -69 7
-150 l3 -148 -25 0 c-14 0 -88 7 -165 15 -77 9 -164 18 -193 21 -40 4 -52 9
-48 19 3 8 6 74 7 146 l2 132 141 -7 c78 -3 170 -10 205 -16z m255 -107 c8
-90 10 -282 3 -289 -10 -10 -16 54 -20 209 -5 151 6 200 17 80z"/>
<path d="M15350 17190 c-22 -22 -74 -122 -180 -350 -271 -580 -508 -1233 -579
-1600 -25 -129 -51 -426 -51 -592 0 -122 -7 -157 -29 -144 -15 10 -14 362 1
711 12 274 13 326 5 380 -2 17 -5 109 -7 205 -2 160 -3 172 -15 134 -7 -23
-18 -51 -24 -63 -6 -11 -14 -61 -18 -111 -5 -80 -3 -93 13 -112 l19 -21 -40 6
c-35 5 -37 4 -16 -6 l24 -11 -8 -201 c-14 -360 -14 -387 -18 -650 -2 -143 -1
-321 2 -395 3 -74 2 -160 -2 -190 -5 -30 -9 -144 -10 -253 -2 -182 -1 -197 16
-197 9 0 17 -7 17 -15 0 -9 -9 -15 -25 -15 -22 0 -24 -3 -15 -19 6 -12 12
-167 15 -388 3 -202 9 -420 12 -483 11 -192 7 -369 -8 -395 -3 -5 -6 -22 -7
-37 -1 -20 2 -26 13 -22 11 5 13 2 9 -10 -3 -9 -10 -16 -16 -16 -5 0 -7 -8 -4
-17 8 -28 4 -239 -8 -408 -2 -16 -3 -51 -4 -77 -2 -40 -5 -47 -24 -50 -15 -3
-3 -9 35 -17 31 -7 57 -16 57 -21 0 -5 -7 -7 -15 -4 -11 5 -15 -1 -15 -20 0
-14 -4 -26 -9 -26 -5 0 -12 -11 -15 -25 -6 -22 -10 -403 -5 -430 1 -5 0 -14
-1 -20 -1 -5 -4 -152 -7 -325 -5 -353 -14 -431 -54 -471 -57 -55 -84 -280 -93
-769 -4 -179 -11 -415 -17 -525 -5 -110 -16 -546 -24 -969 -8 -423 -16 -771
-18 -773 -2 -2 -7 23 -10 54 -9 77 -99 339 -128 369 -17 18 -32 24 -63 23
l-41 -1 42 -10 c56 -12 78 -44 104 -154 46 -198 61 -526 36 -794 l-12 -125
-75 -7 c-41 -3 -313 -9 -603 -14 l-528 -7 3 379 c2 302 6 384 17 404 36 65
125 194 159 232 54 60 81 68 239 69 76 1 197 4 268 8 l130 6 -150 10 c-82 5
-218 10 -301 10 l-152 0 -43 -31 c-57 -41 -183 -227 -205 -303 -15 -49 -16
-94 -7 -411 5 -195 8 -358 6 -362 -2 -5 -41 -8 -86 -8 l-82 0 -1 963 c-1 994
-18 2042 -34 2128 -11 60 -64 167 -121 249 -39 54 -42 62 -36 107 3 27 3 68 0
91 l-6 42 -58 0 c-68 0 -72 -6 -67 -105 l3 -59 53 3 c32 1 52 -2 52 -8 0 -6
-15 -11 -33 -11 -18 0 -42 -6 -52 -14 -18 -13 -18 -25 -7 -327 16 -405 27
-2157 17 -2581 -7 -308 -8 -327 -26 -331 -10 -3 -21 -2 -24 2 -2 4 -4 655 -5
1447 -1 1470 -4 1718 -24 1711 -6 -3 -10 -10 -8 -16 5 -23 2 -3164 -3 -3169
-3 -3 -11 0 -18 7 -17 17 -24 2656 -7 2676 14 17 24 311 13 390 l-9 60 -27
-57 c-15 -31 -27 -72 -27 -91 0 -19 -4 -58 -10 -86 -24 -126 -58 -2939 -37
-2998 8 -23 7 -23 -81 -23 l-90 0 -4 373 c-4 404 -2 389 -65 496 -18 32 -28
40 -34 30 -4 -8 -3 -19 3 -27 7 -8 13 -21 14 -30 1 -10 9 -36 18 -58 12 -35
15 -105 16 -409 1 -201 -1 -369 -5 -373 -13 -14 -1070 -2 -1220 14 l-50 5 -1
187 c-1 196 -17 881 -34 1432 -9 299 -22 795 -35 1295 -10 410 -23 565 -52
632 -13 31 -17 34 -21 18 -2 -11 -39 -76 -82 -145 -74 -120 -257 -439 -335
-585 -20 -38 -56 -103 -80 -145 -23 -41 -77 -142 -120 -225 -106 -205 -224
-426 -305 -570 -245 -439 -418 -777 -498 -975 -73 -180 -136 -354 -161 -440
-27 -99 -71 -374 -66 -425 3 -38 7 -132 21 -485 3 -80 7 -162 9 -183 2 -26 -2
-40 -14 -46 -18 -11 -13 -13 43 -26 60 -13 13 -15 -130 -5 -82 5 -175 12 -206
15 -46 5 -58 3 -58 -8 0 -23 22 -27 194 -38 265 -18 335 -17 350 4 14 19 106
51 106 36 0 -5 -12 -11 -27 -15 -56 -12 -64 -16 -60 -27 7 -21 330 -28 752
-16 280 8 409 15 430 24 17 7 38 15 48 19 70 23 -66 41 -203 27 -53 -6 -222
-13 -375 -16 -154 -3 -326 -7 -382 -10 -56 -2 -104 -1 -107 4 -8 12 92 41 724
206 135 36 265 72 290 81 25 9 108 37 185 63 156 53 184 66 204 93 13 19 33
20 766 16 l753 -3 7 -65 c5 -36 9 -83 10 -104 1 -22 7 -42 13 -44 7 -2 12 -11
12 -21 0 -9 5 -22 11 -28 13 -13 35 -137 38 -217 1 -33 4 -63 7 -68 12 -20 44
-260 54 -413 6 -93 13 -190 16 -215 21 -202 26 -220 70 -220 31 0 43 31 51
123 l6 67 213 0 213 0 3 41 3 41 26 -23 c57 -53 58 -54 69 -24 12 31 30 25 30
-11 0 -28 -16 -27 250 -14 102 5 289 14 415 20 234 11 366 25 398 41 21 12 23
44 2 35 -19 -7 -21 50 -3 90 10 21 10 28 -2 38 -8 6 -53 124 -98 261 -110 327
-171 497 -185 512 -9 9 -148 11 -598 6 l-586 -6 -10 -61 c-6 -34 -28 -151 -51
-261 -23 -113 -46 -261 -52 -340 -16 -190 -28 -229 -23 -70 6 178 20 313 59
593 3 18 9 30 14 27 11 -7 34 90 27 115 -4 17 -1 19 18 14 22 -5 23 -3 29 85
l8 91 486 1 c268 1 603 3 744 4 240 3 258 2 263 -15 7 -24 74 -51 226 -94 68
-19 145 -44 169 -55 25 -11 158 -49 295 -84 138 -36 353 -93 479 -128 l229
-64 -154 -8 c-172 -9 -522 -2 -674 13 -104 11 -215 5 -215 -11 0 -25 80 -42
235 -51 268 -15 1149 -10 1343 7 185 16 202 20 202 42 0 16 -13 16 -249 -4
l-73 -6 5 379 c5 367 -4 551 -33 729 -7 48 -8 48 -9 12 -2 -58 -24 -41 -39 29
-131 579 -191 728 -537 1339 -71 126 -163 309 -141 281 8 -10 53 -86 98 -168
46 -82 123 -220 172 -306 197 -349 268 -501 320 -687 33 -117 59 -195 63 -191
3 3 -38 152 -52 187 -5 14 20 17 226 23 128 4 236 9 241 12 29 18 -28 24 -241
24 l-238 0 -28 73 c-35 91 -94 225 -153 346 -42 87 -45 100 -47 180 -2 47 -3
86 -5 86 -1 0 -3 7 -5 15 -2 8 -10 31 -18 50 -13 32 -14 76 -2 89 3 2 169 7
369 10 200 3 368 9 372 14 20 20 -31 26 -281 31 -356 8 -496 16 -489 27 3 5
-1 9 -8 9 -8 1 -6 6 6 15 17 13 17 15 4 15 -11 0 -24 20 -37 55 -12 31 -21 60
-21 66 0 5 -4 17 -9 27 -18 35 -30 69 -52 142 -12 41 -29 82 -36 92 -8 9 -17
36 -19 60 -3 23 -13 77 -24 118 -10 41 -18 88 -17 104 2 23 -4 32 -33 47 l-35
19 155 0 c416 -1 668 6 683 19 19 15 63 10 59 -7 -3 -15 144 -17 153 -2 16 26
17 26 -740 50 -288 9 -335 14 -335 32 0 5 5 6 10 3 20 -12 9 11 -20 42 -18 19
-25 33 -18 35 9 3 7 14 -5 40 -9 20 -17 41 -17 47 0 14 -1 14 -44 -4 -32 -14
-39 -14 -66 0 -37 19 -50 43 -50 92 0 21 -7 47 -15 57 -24 32 -18 45 34 77 44
28 49 34 47 62 -2 18 -4 52 -6 77 l-3 45 -7 -45 c-4 -25 -5 -57 -3 -72 4 -22
2 -28 -12 -28 -11 0 -15 5 -12 15 4 8 0 26 -7 41 l-14 26 -7 -33 c-4 -18 -15
-45 -25 -61 l-17 -28 -13 41 c-8 23 -23 52 -33 66 -22 27 -19 38 33 119 17 26
19 40 12 85 -7 52 -9 54 -37 53 -17 -1 -45 -5 -62 -9 -32 -7 -33 -6 -33 22 0
27 6 33 50 51 28 12 50 25 50 29 0 17 -48 219 -59 246 -8 20 -8 27 1 27 7 0 5
6 -4 13 -9 6 -18 30 -19 52 -2 22 -8 43 -14 47 -5 4 2 8 17 8 15 0 30 5 33 10
3 6 -3 10 -14 10 -20 0 -24 10 -35 95 -12 88 -18 192 -32 545 -2 54 -7 78 -19
86 -14 10 -14 12 2 18 37 14 507 27 868 24 l375 -3 0 21 c0 21 -6 22 -137 30
-76 5 -365 9 -643 8 -278 -1 -494 2 -480 6 14 5 39 9 55 10 l30 2 -30 8 c-17
4 -22 8 -11 9 12 1 16 6 12 16 -3 9 -8 113 -11 233 -9 313 -12 391 -19 445 -6
43 -4 49 14 54 22 6 28 25 8 22 -7 -1 -22 -1 -33 0 -18 1 -18 3 -3 11 40 24
226 33 723 36 359 2 520 6 519 13 -1 6 -2 15 -2 20 -4 20 -385 34 -745 27
-358 -7 -479 -8 -485 -1 -2 2 2 12 9 23 10 15 10 27 2 44 -8 18 -7 26 4 36 11
11 11 17 3 27 -7 8 -9 24 -4 37 4 13 6 46 5 73 -1 28 -1 57 -1 65 3 115 -2
185 -12 192 -10 6 -10 8 0 8 6 0 12 11 12 25 0 14 -4 25 -10 25 -6 0 -6 9 1
23 7 16 8 49 2 100 -9 71 -8 76 11 86 21 9 21 10 -1 10 -13 1 -23 5 -23 10 0
5 30 12 68 16 37 3 101 10 142 15 41 5 289 8 550 8 397 0 475 2 475 13 0 15
-11 16 -285 39 -151 12 -614 9 -865 -6 -92 -5 -98 -5 -80 10 15 12 16 16 5 16
-9 0 -6 6 9 14 14 8 26 21 27 31 1 9 4 19 7 21 2 3 58 12 123 20 95 13 171 15
374 10 140 -3 280 -8 310 -10 35 -3 24 0 -30 9 -147 24 -476 30 -622 11 -152
-19 -187 -20 -211 -2 -17 13 -17 16 -3 39 11 16 14 34 10 55 -4 17 -3 39 1 49
13 29 14 43 4 43 -5 0 -8 20 -7 44 2 31 6 42 15 39 7 -3 13 0 13 6 0 6 -4 11
-10 11 -5 0 -10 5 -10 10 0 6 6 10 14 10 8 0 12 9 11 24 -3 20 3 26 38 35 23
6 81 13 129 16 78 6 87 5 91 -12 4 -16 5 -16 6 -1 1 11 13 19 38 24 33 6 728
-3 845 -11 31 -2 51 2 59 11 6 8 15 11 20 8 5 -3 9 0 9 5 0 6 -7 11 -16 11 -9
0 -18 9 -21 20 -4 16 -14 20 -44 20 -28 0 -39 -4 -39 -15 0 -21 -16 -19 -40 5
-11 11 -32 20 -48 20 -15 0 -43 4 -61 10 -21 6 -39 6 -45 1 -6 -5 -56 -7 -111
-4 l-100 6 -1 29 c-2 53 -29 49 -40 -7 -6 -32 -7 -33 -42 -28 -21 3 -42 10
-49 15 -7 6 -19 5 -32 -2 -11 -6 -88 -13 -170 -16 l-149 -5 -6 26 c-8 32 -36
33 -36 1 0 -20 -6 -24 -46 -30 -26 -3 -74 -6 -106 -6 -49 0 -59 3 -54 15 3 8
0 15 -7 15 -8 0 -9 3 -1 8 17 11 25 55 10 49 -9 -4 -11 2 -8 19 5 28 -13 55
-33 48 -7 -3 -16 -1 -19 4 -20 32 273 48 890 47 l392 0 -1 48 c-1 43 -3 48
-26 53 -51 11 -61 15 -61 25 0 5 3 9 8 9 4 0 13 4 21 9 12 8 12 12 2 25 -10
12 -10 34 -1 110 7 53 16 93 21 90 5 -3 4 7 -1 21 -9 24 -8 26 11 23 22 -3 22
-1 20 152 -2 232 -28 466 -57 524 -10 22 -11 32 -3 43 9 10 8 26 -5 66 -8 28
-34 133 -56 232 -21 99 -62 270 -89 380 -43 171 -73 283 -177 645 -26 92 -27
96 -16 85 6 -5 33 -62 60 -125 27 -64 58 -134 69 -155 24 -48 231 -598 278
-740 58 -172 105 -343 105 -378 0 -37 15 -57 42 -57 19 0 24 19 9 36 -4 5 -16
38 -25 74 -28 104 -116 378 -149 465 -109 285 -225 572 -280 691 -35 77 -68
150 -72 164 -4 14 -24 59 -45 100 -20 41 -71 145 -113 231 -104 213 -137 249
-187 199z m267 -402 c-3 -8 -6 -5 -6 6 -1 11 2 17 5 13 3 -3 4 -12 1 -19z
m-720 -1534 c-3 -3 -12 -4 -19 -1 -8 3 -5 6 6 6 11 1 17 -2 13 -5z m-57 -11
c-14 -2 -52 -10 -86 -18 -61 -15 -91 -19 -83 -10 11 11 117 34 154 33 24 0 30
-2 15 -5z m225 -693 c-16 -4 -46 -8 -65 -8 l-35 0 30 8 c17 4 46 8 65 8 l35 0
-30 -8z m-125 -10 c0 -6 -23 -9 -52 -9 l-53 2 40 7 c60 11 65 11 65 0z m150
-30 c0 -6 -6 -13 -14 -16 -8 -3 -12 -13 -10 -22 2 -9 -3 -26 -11 -37 -14 -18
-16 -18 -32 -2 -11 11 -13 17 -5 17 10 0 10 4 0 20 -14 22 -2 41 13 20 8 -11
9 -10 4 8 -6 19 -3 22 24 22 17 0 31 -5 31 -10z m-561 -157 c-1 -80 -4 -119
-9 -103 -12 37 -12 230 0 230 6 0 10 -49 9 -127z m511 12 c-11 -14 -10 -17 8
-22 12 -3 22 -12 22 -19 0 -8 5 -14 11 -14 8 0 8 -5 -1 -15 -14 -17 -1 -21 18
-5 6 6 10 7 7 4 -3 -4 0 -13 5 -19 8 -10 -12 -14 -92 -19 -57 -4 -140 -11
-186 -17 -46 -6 -85 -9 -88 -7 -2 3 32 12 76 21 49 10 88 24 102 37 12 11 16
20 10 20 -17 0 -15 27 2 33 16 6 41 -17 33 -31 -3 -4 -2 -14 3 -22 12 -20 34
7 37 45 1 16 10 35 19 42 22 16 31 8 14 -12z m-497 -242 c4 -54 10 -264 13
-467 7 -338 6 -370 -10 -381 -14 -11 -14 -14 -1 -25 13 -11 15 -184 15 -1419
0 -773 2 -1467 6 -1541 l5 -135 -25 28 c-14 15 -30 44 -35 65 -15 53 -15 1224
0 1239 13 13 3 109 -12 119 -5 3 -7 9 -4 14 3 4 5 589 5 1298 0 1296 0 1297
31 1301 3 1 9 -43 12 -96z m-1913 -4227 c10 -19 10 -44 2 -118 -27 -225 -34
-690 -30 -2041 3 -1292 2 -1377 -14 -1377 -36 0 -39 91 -38 1439 0 1044 8
1599 25 1886 7 109 25 235 35 235 4 0 12 -11 20 -24z m27 -188 c-2 -24 -4 -5
-4 42 0 47 2 66 4 43 2 -24 2 -62 0 -85z m-382 -931 c0 -369 -4 -679 -7 -687
-4 -8 -9 -31 -12 -50 -2 -19 -3 196 0 479 2 283 4 608 4 723 0 114 3 208 8
208 4 0 7 -303 7 -673z m66 -2128 c14 -27 7 -23 -32 17 -31 34 -32 35 -6 19
15 -10 32 -26 38 -36z m359 -71 c0 -74 -5 -73 -14 5 -5 38 -4 57 3 57 7 0 11
-24 11 -62z m-2055 -117 c-6 -4 -57 -23 -115 -40 -58 -18 -139 -43 -180 -56
-41 -13 -118 -33 -170 -45 -52 -12 -165 -42 -250 -67 -174 -50 -457 -123 -478
-123 -29 0 1 19 41 25 23 4 112 27 197 52 189 55 406 115 560 155 63 16 122
35 130 42 21 18 123 44 194 51 33 3 62 7 64 10 3 3 8 5 11 5 3 0 1 -4 -4 -9z
m4180 -141 c-3 -5 -12 -7 -20 -3 -21 7 -19 13 6 13 11 0 18 -4 14 -10z m120
-26 c66 -17 92 -39 33 -27 -34 6 -119 41 -105 42 4 1 37 -6 72 -15z m185 -56
c11 -7 8 -8 -10 -4 -14 3 -31 6 -37 6 -7 0 -13 5 -13 11 0 11 33 4 60 -13z
m165 -42 c18 -13 18 -14 -8 -9 -15 3 -30 9 -33 14 -8 14 20 10 41 -5z m-1371
-775 c3 -5 -11 -11 -32 -13 -48 -4 -74 1 -67 13 8 12 92 12 99 0z m-1377 -78
c-3 -10 -5 -2 -5 17 0 19 2 27 5 18 2 -10 2 -26 0 -35z"/>
<path d="M15027 14302 c-10 -10 -14 -21 -11 -25 9 -9 44 16 44 30 0 18 -14 16
-33 -5z"/>
<path d="M12261 8114 c0 -11 3 -14 6 -6 3 7 2 16 -1 19 -3 4 -6 -2 -5 -13z"/>
<path d="M10479 17183 c-13 -15 -12 -15 9 -4 23 12 28 21 13 21 -5 0 -15 -7
-22 -17z"/>
<path d="M9470 17083 c-58 -109 -104 -208 -101 -222 1 -7 -2 -10 -9 -6 -15 9
-205 -388 -194 -406 3 -5 1 -9 -3 -9 -9 0 -53 -83 -53 -99 0 -5 20 -17 45 -27
33 -12 45 -22 45 -38 1 -37 16 1 49 124 48 176 182 561 245 703 24 56 12 45
-24 -20z"/>
<path d="M12382 16833 l3 -118 78 -3 77 -3 0 121 0 120 -80 0 -81 0 3 -117z
m123 59 c0 -12 -3 -22 -7 -22 -5 0 -26 0 -48 0 -29 0 -40 4 -40 15 0 10 10 15
29 15 17 0 33 5 36 11 11 16 30 4 30 -19z m5 -77 c0 -15 -56 -35 -77 -27 -7 2
-13 11 -13 19 0 8 6 13 13 10 6 -2 21 -1 32 4 31 12 45 10 45 -6z m5 -55 c4
-6 -9 -10 -32 -9 -30 0 -34 2 -18 9 27 12 43 12 50 0z"/>
<path d="M12443 16603 l-63 -4 0 -134 0 -135 80 0 80 0 0 134 c0 113 -2 135
-16 140 -9 3 -16 5 -17 4 -1 -1 -30 -3 -64 -5z m41 -78 c-4 -10 -18 -14 -43
-13 l-36 1 33 4 c17 2 32 8 32 14 0 5 4 9 10 9 5 0 7 -7 4 -15z m-1 -62 c-7
-2 -19 -2 -25 0 -7 3 -2 5 12 5 14 0 19 -2 13 -5z m27 -93 c0 -5 -4 -10 -10
-10 -5 0 -10 5 -10 10 0 6 5 10 10 10 6 0 10 -4 10 -10z"/>
<path d="M14507 16369 c4 -13 8 -18 11 -10 2 7 -1 18 -6 23 -8 8 -9 4 -5 -13z"/>
<path d="M9191 16234 c0 -11 3 -14 6 -6 3 7 2 16 -1 19 -3 4 -6 -2 -5 -13z"/>
<path d="M9036 16174 c-21 -51 -24 -69 -15 -80 7 -9 10 -41 7 -87 -3 -60 -8
-82 -31 -116 -52 -79 -49 -131 14 -193 34 -34 39 -36 39 -18 0 12 -4 19 -9 16
-5 -4 -21 8 -35 25 -28 33 -33 73 -14 114 11 25 94 79 108 70 9 -6 95 294 86
302 -3 4 -9 -8 -12 -25 -8 -39 -15 -40 -36 -4 -9 15 -30 35 -46 44 l-30 18
-26 -66z"/>
<path d="M12397 16193 c-16 -4 -17 -17 -16 -120 3 -131 -1 -127 102 -135 l57
-5 0 134 0 133 -62 -1 c-35 -1 -71 -3 -81 -6z m100 -97 c-4 -11 -54 -12 -65
-1 -4 3 -1 10 6 14 18 11 64 1 59 -13z m1 -83 c-4 -23 -88 -32 -88 -10 0 22
10 27 52 27 32 0 39 -3 36 -17z"/>
<path d="M8908 15855 c-6 -30 -2 -32 12 -6 6 11 6 22 1 25 -5 3 -11 -5 -13
-19z"/>
<path d="M12387 15833 c-3 -5 28 -9 69 -10 44 -2 74 1 74 7 0 12 -136 14 -143
3z"/>
<path d="M9066 15795 c-3 -9 -6 -22 -5 -28 0 -7 5 -1 10 12 5 13 8 26 5 28 -2
2 -6 -3 -10 -12z"/>
<path d="M12398 15793 c-16 -4 -18 -20 -18 -143 l0 -139 33 -6 c18 -4 53 -5
77 -3 l45 3 0 145 0 145 -60 2 c-33 0 -68 -1 -77 -4z m39 -189 c-3 -3 -12 -4
-19 -1 -8 3 -5 6 6 6 11 1 17 -2 13 -5z"/>
<path d="M11279 15701 c-34 -35 -36 -49 -8 -85 22 -28 60 -34 78 -12 18 22 25
81 12 105 -16 29 -47 26 -82 -8z m41 -22 c0 -16 -3 -18 -19 -7 -15 9 -17 16
-9 25 13 16 28 7 28 -18z"/>
<path d="M13536 15708 c-35 -49 0 -128 57 -128 41 0 73 52 58 94 -22 57 -86
76 -115 34z"/>
<path d="M8835 15659 c-18 -28 -115 -358 -124 -419 -50 -339 -79 -683 -60
-707 21 -25 26 -13 16 42 -8 43 -6 86 12 207 29 209 40 311 35 320 -3 4 1 17
8 28 11 17 11 22 -1 30 -12 7 -9 15 17 41 38 38 39 45 11 54 -16 5 -18 10 -8
21 6 8 18 14 25 14 8 0 14 7 14 15 0 8 6 29 14 47 42 100 61 140 77 165 19 28
19 28 16 -87 l-2 -115 35 3 c48 4 130 31 130 43 0 5 -7 26 -15 47 -15 36 -15
57 1 187 l5 40 -44 -3 c-25 -2 -67 4 -100 16 -32 10 -60 16 -62 11z m-41 -236
c-4 -16 -12 -39 -17 -53 -6 -14 -11 -31 -11 -39 -1 -8 -7 -16 -15 -19 -11 -4
-12 0 -6 14 4 11 12 33 18 49 19 58 27 75 32 75 3 0 2 -12 -1 -27z m-60 -198
c3 -8 1 -15 -4 -15 -6 0 -10 7 -10 15 0 8 2 15 4 15 2 0 6 -7 10 -15z"/>
<path d="M10470 15589 c-44 -27 -50 -36 -48 -74 1 -29 1 -30 5 -3 4 26 25 51
68 83 30 21 15 18 -25 -6z"/>
<path d="M12383 15213 c4 -104 10 -227 13 -275 l7 -88 62 0 c48 0 64 4 69 16
8 21 8 463 0 503 l-6 31 -76 0 -75 0 6 -187z m127 -268 c0 -38 -11 -49 -40
-40 -25 8 -27 45 -2 45 16 1 16 2 -1 15 -18 13 -17 14 5 17 33 6 38 1 38 -37z"/>
<path d="M10432 15325 c0 -16 2 -22 5 -12 2 9 2 23 0 30 -3 6 -5 -1 -5 -18z"/>
<path d="M16217 15214 c-4 -4 -7 -14 -7 -23 0 -11 3 -12 11 -4 6 6 10 16 7 23
-2 6 -7 8 -11 4z"/>
<path d="M16209 15166 c-3 -3 3 -83 13 -178 9 -95 17 -244 17 -330 1 -145 3
-158 20 -168 26 -13 51 -13 51 1 0 6 -8 13 -17 15 -16 4 -18 18 -18 115 1 61
-3 113 -7 115 -13 9 -9 26 5 21 16 -6 14 42 -9 226 -13 105 -40 197 -55 183z"/>
<path d="M12409 14658 c-7 -20 -7 -197 -1 -207 7 -10 24 -12 71 -6 l61 7 0
104 0 104 -65 0 c-36 0 -65 -1 -66 -2z"/>
<path d="M8648 14503 c-10 -3 -18 -11 -18 -19 0 -19 36 -18 43 1 7 17 -1 23
-25 18z"/>
<path d="M12407 14263 c-2 -5 -3 -51 -3 -103 l1 -95 68 -3 67 -3 0 106 0 105
-64 0 c-36 0 -67 -3 -69 -7z"/>
<path d="M16227 14193 c-3 -5 -2 -26 2 -47 5 -34 11 -41 43 -52 22 -7 40 -9
43 -4 11 18 -8 81 -28 95 -23 16 -53 20 -60 8z"/>
<path d="M8629 14170 c-5 -52 -2 -100 7 -103 13 -3 16 42 5 88 -7 32 -9 35
-12 15z"/>
<path d="M8660 14163 c0 -33 14 -58 27 -50 7 5 9 26 4 70 -1 4 -8 7 -16 7 -10
0 -15 -10 -15 -27z"/>
<path d="M14840 14090 c0 -12 8 -12 35 0 18 8 17 9 -7 9 -16 1 -28 -3 -28 -9z"/>
<path d="M10165 13980 c-3 -5 -1 -10 4 -10 6 0 11 5 11 10 0 6 -2 10 -4 10 -3
0 -8 -4 -11 -10z"/>
<path d="M9107 13964 c-9 -10 2 -24 19 -24 8 0 14 7 14 15 0 15 -21 21 -33 9z"/>
<path d="M16230 13855 c0 -34 20 -49 35 -25 3 6 11 10 17 10 6 0 8 -3 5 -6 -8
-9 11 -44 23 -44 13 0 13 37 0 45 -5 3 -10 18 -10 33 -1 25 -2 25 -14 10 -16
-22 -26 -23 -26 -3 0 8 -7 15 -15 15 -10 0 -15 -11 -15 -35z"/>
<path d="M8660 13865 c0 -9 -7 -18 -15 -21 -17 -7 -21 -34 -4 -34 6 0 19 5 30
10 23 13 26 60 4 60 -8 0 -15 -7 -15 -15z"/>
<path d="M12390 13748 c0 -40 3 -97 7 -126 l6 -53 71 3 71 3 3 123 3 122 -81
0 -80 0 0 -72z m105 -28 c8 -58 3 -70 -33 -70 -27 0 -27 1 -24 60 3 55 6 60
27 60 20 0 24 -6 30 -50z"/>
<path d="M11276 13720 c-21 -26 -24 -35 -15 -57 6 -15 15 -33 21 -40 15 -19
62 -16 81 5 20 22 23 92 5 110 -22 22 -65 14 -92 -18z m44 -15 c0 -9 -9 -15
-25 -15 -18 0 -23 4 -19 15 4 8 15 15 25 15 10 0 19 -7 19 -15z"/>
<path d="M13531 13724 c-27 -35 -27 -66 2 -91 31 -28 53 -34 82 -23 54 21 58
98 5 125 -42 22 -66 19 -89 -11z"/>
<path d="M12437 13353 l-38 -4 3 -107 3 -107 65 0 65 0 0 110 0 110 -30 1
c-16 1 -47 -1 -68 -3z"/>
<path d="M16212 13298 c3 -7 21 -17 40 -23 20 -5 40 -13 44 -17 10 -11 34 -10
34 1 0 9 -90 51 -110 51 -7 0 -10 -6 -8 -12z"/>
<path d="M8648 13282 c-24 -14 -39 -42 -24 -42 12 0 76 43 76 51 0 14 -22 10
-52 -9z"/>
<path d="M12390 12775 l0 -115 80 0 80 0 0 115 0 115 -80 0 -80 0 0 -115z
m110 55 c0 -5 -3 -9 -7 -9 -41 7 -45 0 -41 -66 2 -39 -1 -65 -7 -65 -14 0 -6
133 8 142 17 11 47 10 47 -2z m0 -80 c0 -33 -4 -60 -9 -60 -5 0 -8 19 -6 43 2
23 4 50 4 60 1 9 3 17 6 17 3 0 5 -27 5 -60z"/>
<path d="M12400 12370 l0 -111 68 3 67 3 3 108 3 107 -71 0 -70 0 0 -110z"/>
<path d="M16219 12409 c11 -12 23 -19 28 -16 5 3 26 2 46 -3 28 -6 37 -5 37 5
0 16 -52 35 -97 35 l-34 0 20 -21z"/>
<path d="M8643 12408 c-13 -6 -23 -17 -23 -25 0 -18 34 -9 69 18 l24 19 -24
-1 c-13 0 -34 -5 -46 -11z"/>
<path d="M12400 12028 c0 -7 -3 -52 -7 -100 l-6 -88 26 0 c13 0 25 6 24 13 -1
39 4 48 26 45 16 -2 23 -11 25 -30 2 -19 9 -28 21 -28 35 0 42 23 35 114 l-7
86 -68 0 c-49 0 -69 -4 -69 -12z"/>
<path d="M11280 11738 c-27 -29 -25 -69 3 -96 48 -45 97 -21 97 48 0 17 -5 40
-10 51 -15 26 -64 25 -90 -3z"/>
<path d="M13546 11738 c-19 -27 -21 -89 -4 -106 7 -7 29 -12 49 -12 43 0 69
27 69 72 0 60 -82 93 -114 46z"/>
<path d="M10446 11713 c-3 -3 -6 -45 -6 -93 0 -47 -4 -90 -8 -95 -5 -6 -1 -34
9 -65 21 -64 20 -65 23 128 1 117 -2 140 -18 125z"/>
<path d="M12400 11499 l0 -121 68 7 c37 4 70 9 75 12 9 5 9 99 1 171 l-7 52
-68 0 -69 0 0 -121z m104 67 c-5 -13 -34 -26 -61 -26 -7 0 -13 9 -13 20 0 17
7 20 40 20 30 0 38 -3 34 -14z m-4 -86 l0 -60 -36 0 c-21 0 -33 4 -29 10 3 6
18 10 31 10 25 0 30 24 6 26 -7 1 -18 2 -26 3 -8 0 -14 10 -13 22 1 16 7 20
25 16 18 -3 26 0 29 14 9 33 13 21 13 -41z"/>
<path d="M16206 11531 c-3 -5 -3 -16 0 -25 4 -11 21 -15 65 -15 60 1 77 13 37
28 -42 15 -96 22 -102 12z"/>
<path d="M8643 11520 c-29 -12 -30 -30 -2 -30 25 0 59 17 59 30 0 12 -27 12
-57 0z"/>
<path d="M10445 10803 l0 -588 -36 -80 c-35 -77 -123 -243 -171 -322 -29 -47
-63 -122 -50 -108 10 10 152 259 238 418 23 43 52 85 63 95 29 25 91 140 85
157 -16 41 -52 4 -79 -80 -20 -67 -53 -114 -40 -60 18 81 16 1155 -4 1155 -3
0 -6 -264 -6 -587z"/>
<path d="M12407 11163 c-2 -5 -3 -55 -3 -113 l1 -105 65 0 65 0 3 113 3 112
-65 0 c-36 0 -67 -3 -69 -7z"/>
<path d="M12406 10684 c-3 -26 -6 -75 -6 -110 l0 -64 70 0 70 0 0 110 0 110
-64 0 -63 0 -7 -46z"/>
<path d="M11320 9692 c-32 -10 -50 -36 -50 -72 0 -64 65 -98 100 -53 45 58 10
145 -50 125z m21 -37 c-1 -15 -24 -12 -29 3 -3 9 2 13 12 10 10 -1 17 -7 17
-13z m-1 -55 c0 -5 -2 -10 -4 -10 -3 0 -8 5 -11 10 -3 6 -1 10 4 10 6 0 11 -4
11 -10z"/>
<path d="M13555 9675 c-33 -32 -33 -78 0 -111 15 -15 32 -23 41 -20 9 3 20 6
25 6 12 0 39 54 39 78 0 27 -38 72 -61 72 -11 0 -31 -11 -44 -25z m55 -25 c0
-5 -2 -10 -4 -10 -3 0 -8 5 -11 10 -3 6 -1 10 4 10 6 0 11 -4 11 -10z m0 -50
c0 -5 -4 -10 -9 -10 -6 0 -13 5 -16 10 -3 6 1 10 9 10 9 0 16 -4 16 -10z"/>
<path d="M10014 9409 c-22 -27 -78 -125 -124 -217 -46 -92 -93 -183 -105 -203
-13 -19 -58 -102 -100 -185 -43 -82 -98 -180 -122 -219 -61 -98 -302 -586
-377 -765 -16 -36 -34 -80 -42 -99 -8 -18 -13 -36 -10 -38 3 -3 11 10 19 28
37 87 139 310 166 360 16 31 64 126 107 210 42 85 91 177 109 204 17 28 66
117 109 199 43 82 100 187 127 234 27 47 85 158 128 247 43 89 94 187 113 216
63 99 63 104 2 28z"/>
<path d="M16148 9403 c7 -3 16 -2 19 1 4 3 -2 6 -13 5 -11 0 -14 -3 -6 -6z"/>
<path d="M11790 7818 c0 -9 51 -60 55 -56 3 3 -9 17 -25 33 -17 16 -30 26 -30
23z"/>
<path d="M8610 7696 c0 -16 84 -23 342 -29 129 -3 158 -1 163 11 3 7 3 18 -1
23 -3 5 -116 9 -255 9 -207 0 -249 -2 -249 -14z"/>
<path d="M9101 7619 c-6 -18 -11 -37 -10 -43 0 -6 7 7 15 28 8 22 12 41 10 43
-2 2 -9 -10 -15 -28z"/>
<path d="M10742 7425 c0 -16 2 -22 5 -12 2 9 2 23 0 30 -3 6 -5 -1 -5 -18z"/>
<path d="M15931 7404 c0 -11 3 -14 6 -6 3 7 2 16 -1 19 -3 4 -6 -2 -5 -13z"/>
<path d="M15951 7330 c0 -8 4 -24 9 -35 5 -13 9 -14 9 -5 0 8 -4 24 -9 35 -5
13 -9 14 -9 5z"/>
<path d="M15972 7235 c0 -16 2 -22 5 -12 2 9 2 23 0 30 -3 6 -5 -1 -5 -18z"/>
<path d="M8610 6857 c0 -20 46 -27 195 -30 97 -2 110 0 113 16 3 15 -8 17
-130 17 -73 0 -143 3 -155 6 -17 5 -23 2 -23 -9z"/>
<path d="M16141 6859 c-99 -9 -107 -11 -97 -28 5 -7 35 -9 84 -5 178 12 202
15 202 30 0 16 -36 17 -189 3z"/>
<path d="M10753 6810 c0 -30 2 -43 4 -27 2 15 2 39 0 55 -2 15 -4 2 -4 -28z"/>
<path d="M11047 6203 c-22 -60 -81 -231 -133 -382 -51 -151 -98 -279 -104
-285 -15 -15 -12 -37 7 -58 15 -17 15 -19 0 -36 -26 -28 -21 -61 9 -72 44 -17
606 -58 855 -63 l166 -3 12 32 c7 19 20 34 34 37 12 3 32 9 45 12 21 7 22 4
22 -39 l0 -46 221 0 c121 0 218 3 216 8 -3 4 -10 84 -16 177 -14 207 -31 320
-81 535 -22 91 -42 183 -45 205 -3 22 -8 50 -11 63 l-4 22 -578 0 -577 0 -38
-107z m517 -109 c22 -8 20 -34 -10 -175 -37 -177 -71 -306 -96 -371 l-23 -58
-105 1 c-58 1 -116 4 -130 8 -23 7 -24 8 -5 14 15 5 36 52 89 199 89 248 136
370 149 387 11 13 92 10 131 -5z m526 -419 c0 -77 -4 -155 -10 -174 -7 -24 -6
-38 1 -48 9 -10 3 -13 -34 -13 -33 0 -49 -5 -56 -17 -15 -26 -13 -11 13 122
14 66 32 170 41 230 26 174 28 181 37 105 4 -36 8 -128 8 -205z m-947 -192
c-7 -2 -19 -2 -25 0 -7 3 -2 5 12 5 14 0 19 -2 13 -5z m7 -48 c0 -25 -4 -35
-16 -35 -11 0 -14 -5 -10 -16 5 -12 1 -14 -17 -8 -68 21 -81 31 -72 57 5 11
42 24 108 36 4 0 7 -15 7 -34z m377 29 c-3 -3 -12 -4 -19 -1 -8 3 -5 6 6 6 11
1 17 -2 13 -5z m-530 -11 c-4 -3 -2 -12 4 -20 9 -10 8 -13 -5 -13 -9 0 -16 8
-16 20 0 11 5 20 12 20 6 0 8 -3 5 -7z m78 -83 c15 -6 8 -9 -28 -9 -30 -1 -46
3 -42 9 7 12 42 12 70 0z"/>
<path d="M14690 6270 c8 -5 26 -10 40 -10 20 0 22 2 10 10 -8 5 -26 10 -40 10
-20 0 -22 -2 -10 -10z"/>
<path d="M14621 5356 c11 -12 153 -35 325 -53 135 -14 256 -18 604 -17 394 0
448 2 573 22 76 11 142 24 147 27 24 15 7 22 -32 14 -24 -4 -169 -13 -323 -19
-384 -15 -882 -4 -1230 27 -38 3 -67 3 -64 -1z"/>
<path d="M8670 5342 c0 -16 23 -21 193 -38 203 -22 942 -24 1102 -4 55 6 148
15 207 19 59 4 111 11 115 15 4 5 -41 6 -101 2 -372 -21 -1363 -15 -1488 10
-16 3 -28 1 -28 -4z"/>
<path d="M8670 4732 c0 -14 8 -22 28 -26 100 -21 458 -45 717 -49 l140 -2 2
-90 c1 -49 2 -110 3 -135 l3 -45 6 42 c4 24 9 45 12 47 2 2 41 6 85 9 l81 6
11 -42 11 -42 -4 44 -3 43 38 -6 c21 -3 45 -9 54 -12 10 -4 16 -1 16 9 0 19
-84 25 -205 16 -54 -4 -82 -2 -87 5 -4 6 -8 43 -8 82 l0 72 238 6 c317 8 528
37 540 75 5 15 -46 14 -333 -11 -194 -17 -1065 -17 -1208 0 -59 7 -114 15
-122 19 -10 3 -15 -1 -15 -15z"/>
<path d="M14630 4743 c0 -24 36 -34 185 -53 209 -26 390 -35 680 -34 448 2
832 40 794 78 -2 2 -58 -1 -124 -7 -68 -6 -334 -11 -610 -11 -450 0 -566 4
-857 31 -44 4 -68 2 -68 -4z"/>
<path d="M14868 4643 c6 -2 18 -2 25 0 6 3 1 5 -13 5 -14 0 -19 -2 -12 -5z"/>
<path d="M14923 4633 c9 -2 25 -2 35 0 9 3 1 5 -18 5 -19 0 -27 -2 -17 -5z"/>
<path d="M15040 4576 c0 -35 -3 -84 -6 -110 -5 -31 -3 -46 5 -46 6 0 11 11 11
24 0 35 11 39 95 31 65 -6 74 -10 78 -29 3 -19 4 -18 11 7 5 15 7 30 4 32 -2
2 -43 5 -91 6 l-87 2 0 74 c0 42 -4 73 -10 73 -6 0 -10 -28 -10 -64z"/>
<path d="M15418 4543 c-4 -90 1 -133 13 -133 5 0 9 14 9 31 l0 32 73 -7 c39
-4 80 -9 90 -12 15 -5 17 1 16 43 -1 40 -2 43 -8 18 l-6 -30 -75 0 -75 0 -5
64 c-7 95 -28 91 -32 -6z"/>
<path d="M15843 4526 c1 -48 6 -77 14 -80 16 -7 26 11 16 27 -4 6 -8 36 -8 66
0 34 -5 56 -12 58 -10 4 -12 -15 -10 -71z"/>
<path d="M8989 4530 c-7 -69 0 -90 21 -65 8 9 8 15 2 15 -6 0 -12 25 -14 58
l-3 57 -6 -65z"/>
<path d="M9957 4583 c-3 -5 -8 -31 -12 -60 -9 -78 26 -129 37 -53 3 16 0 30
-5 30 -5 0 -6 7 -3 16 4 9 1 23 -5 30 -9 11 -8 18 1 29 8 9 9 15 2 15 -6 0
-13 -3 -15 -7z"/>
<path d="M16025 4523 c4 -38 12 -72 17 -78 7 -7 9 8 4 45 -3 30 -6 65 -6 78 0
12 -5 22 -11 22 -7 0 -8 -22 -4 -67z"/>
<path d="M16141 4574 c0 -11 3 -14 6 -6 3 7 2 16 -1 19 -3 4 -6 -2 -5 -13z"/>
<path d="M9358 4524 c-3 -61 6 -74 48 -66 31 6 38 17 19 32 -10 9 -15 9 -15 1
0 -6 -10 -11 -21 -11 -20 0 -21 4 -16 45 4 24 3 47 -2 50 -5 3 -11 -20 -13
-51z"/>
<path d="M10110 4566 c0 -9 0 -19 -1 -23 0 -4 4 -9 10 -11 14 -5 14 35 1 43
-5 3 -10 -1 -10 -9z"/>
<path d="M10207 4573 c-10 -9 -8 -66 2 -82 7 -11 10 -10 14 5 14 55 5 99 -16
77z"/>
<path d="M14801 4561 c-6 -11 -7 -22 -2 -25 5 -3 11 4 14 16 8 30 1 35 -12 9z"/>
<path d="M8860 4561 c0 -6 5 -13 10 -16 6 -3 10 1 10 9 0 9 -4 16 -10 16 -5 0
-10 -4 -10 -9z"/>
<path d="M14870 4504 c0 -53 1 -55 23 -48 27 8 23 3 31 37 4 19 3 26 -4 22 -5
-3 -10 -13 -10 -20 0 -8 -6 -12 -14 -9 -20 8 -17 62 3 67 10 3 8 5 -6 6 -21 1
-23 -3 -23 -55z"/>
<path d="M15801 4503 c-14 -49 -14 -53 2 -53 10 0 14 13 13 45 -1 25 -2 45 -3
45 -1 0 -7 -17 -12 -37z"/>
<path d="M9161 4493 c0 -23 4 -45 9 -48 11 -7 11 16 0 60 -7 28 -8 28 -9 -12z"/>
<path d="M8857 4506 c-4 -10 -5 -21 -2 -24 9 -9 17 6 13 25 -3 17 -4 17 -11
-1z"/>
<path d="M14795 4500 c-7 -12 2 -30 16 -30 12 0 12 27 0 35 -5 3 -12 1 -16 -5z"/>
<path d="M15696 4485 c-3 -10 -2 -23 4 -29 15 -15 24 1 13 26 -9 20 -10 20
-17 3z"/>
<path d="M15305 4480 c-27 -4 -39 -8 -24 -8 14 -1 30 -7 36 -13 8 -8 17 -8 32
0 20 11 30 33 14 29 -5 0 -30 -4 -58 -8z"/>
<path d="M9040 4476 c0 -8 61 -12 66 -4 3 4 -11 8 -30 8 -20 0 -36 -2 -36 -4z"/>
<path d="M9208 4473 c6 -2 18 -2 25 0 6 3 1 5 -13 5 -14 0 -19 -2 -12 -5z"/>
<path d="M10111 4424 c0 -11 3 -14 6 -6 3 7 2 16 -1 19 -3 4 -6 -2 -5 -13z"/>
<path d="M10327 4414 c-18 -18 -345 -44 -697 -56 -304 -9 -430 -9 -600 1 -181
10 -344 28 -385 42 -5 2 -11 1 -12 -3 -7 -20 -1 -28 17 -28 21 0 28 -16 8 -22
-6 -2 -12 -17 -13 -34 -1 -16 -10 -56 -19 -89 -25 -85 -37 -134 -43 -180 -3
-22 -8 -42 -12 -45 -9 -6 -32 -103 -37 -154 -2 -22 -8 -44 -13 -50 -18 -22
-60 -251 -54 -294 3 -24 8 -40 11 -37 3 3 20 76 38 162 18 87 51 226 74 308
22 83 55 212 73 288 l32 139 49 -6 c27 -3 51 -8 54 -10 2 -3 0 -22 -6 -43 -75
-283 -173 -674 -192 -768 -7 -33 -17 -66 -23 -73 -5 -7 -8 -15 -5 -18 3 -2 44
-10 92 -16 76 -10 86 -14 87 -32 0 -21 1 -21 9 -1 6 14 8 7 5 -25 -2 -25 -3
-47 -4 -49 -1 -2 -8 2 -16 9 -12 10 -16 9 -21 -5 -4 -10 -1 -20 6 -25 11 -7
10 -11 -3 -24 -9 -9 -14 -23 -11 -30 3 -7 -2 -21 -11 -29 -10 -11 -13 -25 -9
-42 4 -18 2 -25 -9 -25 -13 0 -25 -16 -27 -38 -1 -4 -15 -21 -31 -38 -23 -23
-27 -33 -17 -38 7 -3 -9 -4 -37 -1 -27 3 -88 8 -135 11 l-84 7 17 -26 c21 -33
22 -47 1 -47 -11 0 -15 -6 -11 -20 3 -11 1 -23 -4 -26 -6 -3 -6 -12 0 -22 7
-13 3 -20 -20 -34 -16 -10 -39 -18 -51 -18 -28 0 -13 -13 32 -27 93 -30 207
-47 502 -75 204 -19 139 -22 -99 -3 -225 17 -414 50 -460 81 -33 21 -40 11
-11 -15 74 -70 435 -117 973 -128 628 -12 1252 40 1407 118 44 22 50 37 26 63
-10 11 -18 26 -18 33 0 9 -9 11 -30 7 -16 -4 -37 -3 -47 1 -16 6 -16 8 5 16
25 9 21 29 -5 29 -17 0 -63 45 -63 62 0 5 14 23 32 40 41 38 24 52 -38 31 -24
-8 -49 -13 -56 -11 -7 3 7 12 32 20 30 10 43 20 40 29 -7 21 -3 78 9 138 18
95 23 218 11 294 -28 180 -43 266 -56 316 -7 30 -11 58 -8 62 5 9 -75 329 -86
342 -4 5 -5 -4 -2 -19 3 -19 1 -25 -7 -20 -6 4 -11 21 -11 37 0 16 -7 45 -14
64 -8 19 -11 35 -6 35 5 0 11 -8 14 -17 2 -10 4 -3 3 16 -2 33 -16 49 -30 35z
m-167 -86 c5 -13 34 -142 65 -288 111 -528 118 -561 106 -573 -6 -6 -12 -9
-14 -6 -10 12 -123 478 -156 642 -35 178 -41 247 -20 247 5 0 14 -10 19 -22z
m-970 -8 l155 -7 -115 -2 c-238 -6 -405 3 -417 22 -4 6 32 7 108 2 63 -4 184
-11 269 -15z m-245 -26 c14 -6 13 -9 -6 -22 -13 -9 -33 -16 -46 -17 -27 -1
-63 -37 -63 -63 0 -10 -9 -27 -19 -36 -19 -18 -28 -51 -36 -135 -2 -24 -9 -49
-14 -54 -6 -6 -11 -26 -11 -43 0 -18 -7 -40 -16 -48 -9 -9 -13 -24 -9 -35 3
-11 2 -22 -4 -25 -5 -3 -7 -16 -4 -29 4 -13 2 -19 -3 -14 -5 5 -9 12 -10 15 0
4 -4 14 -8 23 -7 16 47 264 63 283 4 6 11 32 14 57 8 57 24 95 46 104 9 3 32
15 51 25 38 21 49 23 75 14z m-425 -1336 c55 -9 66 -13 43 -16 -41 -4 -144 15
-158 29 -7 7 -3 9 15 5 14 -3 59 -11 100 -18z m532 -71 c58 -7 110 -15 114
-19 4 -5 -52 -8 -125 -8 -81 0 -141 -4 -154 -12 -12 -6 -37 -11 -57 -11 -103
1 -130 4 -130 13 0 6 7 10 16 10 9 0 14 6 12 13 -3 6 -31 15 -63 19 -32 4 -61
11 -64 14 -9 10 325 -4 451 -19z m1381 2 c-6 -20 -47 -37 -79 -31 -16 2 -20 8
-17 22 6 21 24 28 69 27 24 -1 30 -5 27 -18z m137 -70 c0 -5 -17 -9 -37 -8
-27 0 -32 3 -20 8 28 11 57 11 57 0z"/>
<path d="M14617 4413 c-13 -12 -7 -21 17 -27 l24 -6 -28 -54 c-16 -30 -26 -56
-22 -58 4 -2 2 -25 -4 -53 -7 -27 -13 -44 -13 -37 -1 7 -5 10 -11 7 -13 -8
-13 8 1 22 7 7 7 13 1 17 -12 7 -27 -48 -18 -63 4 -5 2 -11 -3 -13 -4 -1 -11
-14 -15 -28 -6 -25 -6 -25 5 -2 14 25 34 31 25 6 -3 -9 -6 -25 -6 -37 0 -14
-3 -18 -8 -10 -11 17 -29 2 -38 -31 -5 -21 -4 -27 5 -22 6 4 11 17 11 29 0 13
4 17 9 12 15 -15 -40 -235 -58 -235 -10 0 2 61 22 110 8 19 12 43 8 53 -5 13
-10 4 -20 -35 -7 -29 -22 -82 -32 -117 -23 -76 -23 -82 -4 -75 19 8 19 -5 0
-30 -9 -12 -11 -22 -5 -26 6 -4 6 -18 0 -41 -15 -52 -29 -268 -20 -319 9 -55
27 -125 43 -165 6 -16 11 -38 12 -49 0 -11 15 -30 34 -43 48 -33 15 -28 -55 7
-32 16 -60 30 -61 30 -10 1 -6 -39 5 -52 18 -21 8 -38 -24 -38 -25 0 -30 -9
-15 -25 5 -6 4 -24 -2 -45 -11 -31 -16 -35 -47 -36 -21 0 -34 -6 -33 -12 2 -7
-8 -14 -22 -18 -28 -7 -29 -8 -15 -35 61 -114 699 -183 1535 -168 506 10 799
49 896 121 33 25 38 48 10 48 -10 0 -21 8 -24 19 -2 11 -21 24 -43 31 -50 16
-69 31 -53 40 8 6 8 13 0 28 -10 19 -8 21 31 29 l43 9 -39 18 c-45 21 -91 19
-229 -12 -48 -11 -90 -15 -93 -11 -3 5 3 9 13 9 36 0 169 33 203 51 l35 18 -3
108 c-2 60 -9 114 -15 121 -6 8 -12 23 -14 34 -2 11 -10 35 -19 53 -16 35 -11
59 20 85 27 21 19 114 -23 280 -5 19 -32 112 -61 205 -28 94 -56 186 -62 205
-6 19 -14 40 -18 45 -4 6 -14 36 -21 68 l-14 58 -32 -6 c-18 -3 -33 -2 -33 3
0 5 18 12 40 16 26 4 40 12 40 21 0 11 -6 12 -22 6 -79 -29 -214 -36 -733 -36
-435 0 -561 4 -705 18 -96 10 -184 20 -195 23 -11 3 -27 8 -36 10 -8 2 -18 1
-22 -3z m1617 -80 c23 -79 112 -406 141 -523 54 -213 77 -332 66 -343 -5 -5
-35 -11 -68 -14 l-59 -5 -12 38 c-6 22 -22 95 -36 164 -38 196 -123 559 -146
624 -11 33 -20 60 -20 62 0 4 50 11 92 13 27 1 38 -4 42 -16z m-1570 -788
c-16 -61 -34 -94 -34 -62 0 19 40 130 46 125 2 -2 -4 -31 -12 -63z m1683 -581
c-3 -3 -12 -4 -19 -1 -8 3 -5 6 6 6 11 1 17 -2 13 -5z m-1933 -35 c-4 -7 4
-10 22 -9 16 1 40 1 54 0 19 -2 15 -4 -15 -10 -42 -8 -85 2 -85 20 0 5 7 10
16 10 8 0 12 -5 8 -11z m256 -9 c8 -5 19 -5 25 -1 14 12 55 -5 55 -24 0 -8 -8
-15 -17 -15 -10 0 -35 -3 -55 -6 -37 -6 -38 -6 -38 25 0 33 6 37 30 21z m110
-30 c0 -5 -2 -10 -4 -10 -3 0 -8 5 -11 10 -3 6 -1 10 4 10 6 0 11 -4 11 -10z
m1787 -45 c-10 -7 -51 -19 -90 -25 -40 -6 -82 -13 -94 -16 -16 -3 -23 0 -23
10 0 22 80 42 175 44 45 1 48 0 32 -13z m-2030 -29 c4 -4 -17 -5 -47 -4 -29 2
-55 8 -57 14 -4 12 92 3 104 -10z"/>
<path d="M8408 3078 c9 -9 15 -9 24 0 9 9 7 12 -12 12 -19 0 -21 -3 -12 -12z"/>
<path d="M10564 2985 c16 -9 32 -13 35 -10 8 9 -21 25 -44 25 -16 0 -14 -3 9
-15z"/>
<path d="M14330 2980 c6 -11 15 -20 20 -20 6 0 10 9 10 20 0 13 -7 20 -20 20
-18 0 -19 -3 -10 -20z"/>
<path d="M10605 2961 c-3 -5 10 -9 30 -8 19 1 35 5 35 10 0 10 -58 9 -65 -2z"/>
</g>
</svg>
